<?xml version="1.0" encoding="utf-8"?>
<!-- Generator: Adobe Illustrator 21.0.0, SVG Export Plug-In . SVG Version: 6.00 Build 0)  -->
<svg version="1.1" id="Layer_1" xmlns="http://www.w3.org/2000/svg" xmlns:xlink="http://www.w3.org/1999/xlink" x="0px" y="0px"
	 width="406px" height="352px" viewBox="0 0 406 352" enable-background="new 0 0 406 352" xml:space="preserve">
<g>
	<g>
		<path display="none" fill="#37B596" d="M382.278,242.733c0,0-2.988-4.648-7.968-2.656c0,0-22.384-2.921-26.639-1.941
			s-13.607,1.188-29.488,4.198c-15.881,3.01-62.277,2.64-98.436-4.059s-98.882-28.006-132.136-19.447
			c-32.811,8.445-33.7,4.15-49.783,28.123c-2.546,3.795,0.993,6.817-13.135,12.715l-4.15,1.162l-0.83-0.202
			c-0.452-0.11-0.649-0.203-1.048,0.036l-1.058,0.529c-0.385,0.231,0.425,1.45,0.436,1.899l-0.197,1.473
			c0,0-2.075,2.988,1.606,4.193c0,0,14.108-0.096,15.019,2.907c0.911,3.003,14.94,21.338,26.769,27.841
			c11.334,6.23,17.84,8.377,27.4,10.912c8.056,2.136,37.67,9.869,49.882,13.816c15.611,5.046,43.102,15.138,75.326,19.738
			c0,0,24.483,3.752,29.534,3.068c0,0,29.036,3.63,40.867,1.623s49.102-7.582,57.476-8.314c8.373-0.731,20.022-4.831,27.259-2.786
			c0,0,17.114,3.948,31.059,3.616c0,0,3.486-1.494,0.664-1.494s-12.451-3.652-12.451-3.652c-6.474-1.826-20.321-7.546-40.347-12.044
			c0,0-28.605-7.521-45.989-7.787c0,0-1.118-11.698-16.476-15.813c-1.314-0.352-2.733-0.649-4.265-0.878
			c0,0,35.565-14.215,46.164-25.687c0,0,20.131-17.05,26.069-20.125c5.938-3.074,15.81-6.919,21.148-8.391l4.648-0.913
			c0,0,2.656,3.569,3.901,2.822L382.278,242.733z"/>
		<path fill="#329B8E" d="M382.278,242.733c0,0-2.988-4.648-7.968-2.656c0,0-93.462,6.296-154.563-1.802
			c-36.455-4.832-96.949-25.964-131.139-22.779c-28.386,2.644-39.344,15.439-50.78,31.456c-2.656,3.72,0.993,6.817-13.135,12.715
			l-4.15,1.162l-0.83-0.202c-0.452-0.11-0.649-0.203-1.048,0.036l-1.058,0.529c-0.385,0.231,0.425,1.45,0.436,1.899l-0.197,1.473
			c0,0-2.075,2.988,1.606,4.193c0,0,14.108-0.096,15.019,2.907c0.911,3.003,6.327,21.525,26.747,30.489
			c38.811,17.039,112.137,40.228,215.149,46.317c30.465,1.801,78.689-9.961,92.618-10.908c0,0,17.114,3.948,31.059,3.616
			c0,0,3.486-1.494,0.664-1.494s-12.451-3.652-12.451-3.652c-6.474-1.826-20.321-7.546-40.347-12.044c0,0-28.605-7.521-45.989-7.787
			c0,0-1.118-11.698-16.476-15.813c-1.314-0.352-2.733-0.649-4.265-0.878c9.827-3.928,19.513-8.431,28.78-13.539
			C332.36,273.623,382.278,242.733,382.278,242.733z"/>
		<g>
			<g>
				<path fill="#FFFFFF" d="M107.324,250.873c-4.301-1.038-4.941,4.135-5.464,7.069c-0.346,1.94-0.643,4.054,0.247,4.647
					c0,0,1.038,0.198,0.939,0.791c-0.077,0.463-0.148,1.285-0.247,1.631c-0.336,1.176-0.939,2.064-1.532,2.954
					c-1.78,3.411-3.411,6.229-4.301,10.085c-0.593,2.818-1.631,11.865,2.966,11.568c0,0,0.626,0.055,1.137-0.039l0,0l1.087,0.101
					c4.868,0.049,6.057-5.883,7.392-8.552c2.225-4.598,6.081-6.822,9.195-10.53l1.581-0.89l-4.153-17.5c0,0-1.961-0.005-2.002-0.008
					L107.324,250.873"/>
			</g>
			<g opacity="0.2">
				<path d="M107.324,250.873c-4.301-1.038-4.941,4.135-5.464,7.069c-0.346,1.94-0.643,4.054,0.247,4.647
					c0,0,1.038,0.198,0.939,0.791c-0.077,0.463-0.148,1.285-0.247,1.631c-0.336,1.176-0.939,2.064-1.533,2.954
					c-1.78,3.411-3.411,6.229-4.301,10.085c-0.593,2.818-1.582,11.976,3.016,11.679c0,0,1.681,0.049,1.73-0.556
					c0.317-3.888,1.367-7.612,2.225-11.568c0.667-3.077,4.116-11.531,2.336-13.904l-0.58-0.816l0.084-0.63c0,0,1.126-9.232,1.2-9.64
					L107.324,250.873z"/>
			</g>
		</g>
		<circle fill="#32BAA0" cx="86.616" cy="264.8" r="18.427"/>
		<circle fill="#32BAA0" cx="176.261" cy="305.14" r="18.427"/>
		<circle fill="#32BAA0" cx="218.096" cy="308.128" r="18.427"/>
		<circle fill="#32BAA0" cx="250.468" cy="313.607" r="18.427"/>
		<circle fill="#32BAA0" cx="286.326" cy="317.093" r="18.427"/>
		<g>
			<g>
				<path fill="#FFFFFF" d="M187.137,286.912c0.016-0.133-0.045-0.18-0.146-0.177c-0.165-0.628-0.608-1.35-1.634-1.936
					c-1.298-0.742-1.817-1.446-1.817-1.446c-1.78-2.002-2.508-3.411-3.398-5.784c-0.148,0-0.148-0.148-0.148-0.148
					c-1.012-4.202-12.411-0.049-12.905,0.742c-0.494,0.791-0.815,2.324-0.815,2.324c-0.445,2.076-0.742,4.153-0.593,6.229
					l0.085,3.21c-0.12,0.387,0.014,0.318,0.014,0.745c4.301,0.148,7.119-0.148,11.271-0.297c3.558-0.137,8.602,1.549,9.851-2.361
					c0.049-0.154,0.096-0.238,0.11-0.376c0.01-0.091,0.063-0.209,0.061-0.316C187.099,287.188,187.121,287.054,187.137,286.912z"/>
			</g>
			<g opacity="0.2">
				<path d="M165.781,288.766c0,0.424,0,1.112,0,1.112c-0.148,0.445,0,0.346,0,0.791c4.301,0.148,7.119-0.148,11.271-0.297
					c3.856-0.148,9.46,1.85,10.085-3.461c0.074-0.63-1.507,0.593-1.507,0.593c-1.186,0.445-3.411-0.445-4.894-0.445
					c-1.928,0-4.004,0.593-5.636,1.335c-2.818,1.186-4.228,1.285-7.343,0.84L165.781,288.766z"/>
			</g>
		</g>
		<path fill="#32BAA0" d="M347.25,332.544c0,0-98.278-2.656-139.449-12.617c-23.905-5.784-46.909-16.083-69.496-25.608
			c-21.742-9.169-43.238-19.267-65.449-27.273c-6.282-2.264-12.822-3.678-19.376-4.895c-6.169-1.146-13.1-3.103-19.326-1.324
			l-4.067-0.664c0,0,7.221-3.486,9.214-6.724c3.536-5.746,7.57-11.424,12.727-15.838c5.458-4.672,13.225-6.092,20.047-7.856
			c14.882-3.849,30.212-6.002,45.57-6.556c15.715-0.567,30.703,2.482,46.1,4.956c7.964,1.28,15.928,2.56,23.891,3.84
			c-33.776-7.821-73.649-18.855-99.029-16.491c-28.386,2.644-39.344,15.439-50.78,31.455c-1.847,4.083,0.993,6.817-13.135,12.716
			l-4.15,1.162l-0.83-0.202c-0.452-0.11-0.649-0.203-1.048,0.036l-1.058,0.529c-0.385,0.231,0.425,1.45,0.436,1.899l-0.197,1.473
			c0,0-2.075,2.988,1.606,4.193c0,0,14.108-0.096,15.019,2.907c0.911,3.003,6.327,21.525,26.747,30.489
			c38.811,17.039,112.137,40.228,215.149,46.317c28.211,1.667,71.646-8.293,88.98-10.529c1.118-0.562,2.311-0.754,3.638-0.379
			C368.983,337.56,364.681,332.295,347.25,332.544z"/>
		<path fill="none" stroke="#329B8E" stroke-width="2" stroke-miterlimit="10" d="M368.983,337.56c0,0-4.301-5.265-21.733-5.016
			c0,0-98.278-2.656-139.449-12.617c-23.905-5.784-46.909-16.083-69.496-25.608c-21.742-9.169-43.238-19.267-65.449-27.273
			c-6.282-2.264-12.822-3.678-19.376-4.895c-6.169-1.146-13.1-3.103-19.326-1.324"/>
		<path fill="#062440" d="M32.473,249.241c0.652-1.214,1.53-2.392,2.176-3.595c0.122-0.228,0.241-0.476,0.215-0.734
			c-0.025-0.249-0.18-0.462-0.329-0.662c-0.774-1.038-1.548-2.076-2.322-3.114c2.185-1.743,5.869-1.029,7.245,1.404
			c1.16,2.05,0.708,8.859,4.372,7.512c6.983-2.565,12.462-6.703,18.196-11.252c2.996,4.261,0.148,10.943-3.254,14.087
			c-1.976,1.826-4.387,3.172-6.947,3.987c-2.043,0.651-5.192,0.277-6.984,1.363c-1.725,1.045-2.064,4.02-3.573,5.479
			c0.706-0.682,5.806,6.866,6.1,7.45c1.44,2.863,2.591,6.588,2.267,9.827c-1.309-3.316-5.996-3.048-8.309-5.255
			c-1.617-1.543-2.67-4.765-5.144-5.095c-2.026-0.27-3.621,1.692-5.762,0.978c-5.066-1.69-10.617-3.231-15.984-2.283
			c-3.628,0.641-8.759,2.408-9.574-2.828c-1.159-7.453,16.737-6.941,20.847-10.01c1.882-1.406,3.594-2.911,5.927-3.522
			C31.412,251.657,31.834,250.431,32.473,249.241z"/>
	</g>
	<g>
		<g>
			<path fill="#FFE8CE" d="M103.121,51.422c0.198,3.296,0.813,6.164,1.055,9.204"/>
		</g>
		<g>
			<path fill="#FFE9CF" d="M104.176,60.626c0.121,1.519,0.148,3.081-0.017,4.761c-0.396,3.856-1.088,7.712-1.384,11.667
				c-0.395,4.548-1.186,11.766,3.461,14.534c2.175,1.285,5.043,1.78,7.415,2.768c1.878,0.89,5.784,2.62,7.761,3.411
				c0,0,3.263-14.732-0.445-15.375l-1.928-0.371l-4.412-0.593c-0.425-0.078-0.593-0.334-0.852-0.829
				c-1.005-1.926-1.607-5.202-2.053-7.34c-0.791-3.955-1.783-8.9-0.494-12.854c0.658-2.018,1.025-3.494,0.952-3.448"/>
		</g>
		<g>
			<path fill="#FFE9CF" d="M125.158,53.807c0,0,8.565,3.374,12.025,4.066c2.571,0.494,5.537,0.89,7.91,1.878
				c0,0,0.865,0.173,1.607,0.618c0.927,0.556,2.521,12.05,2.521,12.05l-1.458-0.012c-0.494-0.099-0.989-0.198-1.384-0.297
				c-4.252-0.89-8.108-2.867-11.766-5.141c-4.153-2.571-7.465-5.933-12.211-7.02l-0.395-0.148"/>
		</g>
		<g>
			<path fill="#051E33" d="M179.995,276.185c-0.805,0.503-8.216-0.428-16.185,3.058c-0.593-7.119-0.996-14.443-2.502-22.14
				c-1.55-7.921-4.449-16.166-4.004-24.174l0.247-6.575c0,0,5.24-2.175,8.305-7.712c3.065-5.537,9.788-17.698,9.788-17.698
				s1.088-1.681,1.088,1.137C176.732,207.124,180.786,275.69,179.995,276.185z"/>
		</g>
		<g>
			<path fill="#062440" d="M150.333,192.736c-2.252-9.007-5.696-16.788-5.896-26.216c-0.148-6.965,2.183-13.537,4.413-20.056
				l0.89-0.89c0,0,14.831-2.744,20.986-1.112c6.155,1.631,11.716,1.186,12.31,2.595c0.593,1.409,0.519,1.928,0.519,1.928
				c1.78,10.233,1.483,20.763-0.445,30.997c-2.638,14.003-7.523,24.545-12.327,38.003c-3.699,10.364-39.842,51.297-50.982,53.178
				c-0.529-3.95-5.645-20.87-5.794-22.798c-0.226-2.146,9.015-5.774,10.737-8.664c2.316-3.885,18.318-22.6,19.983-25.014
				c1.082-1.569,4.047-16.235,5.754-21.358L150.333,192.736z"/>
		</g>
		<g>
			<path fill="#ED706D" d="M173.593,76.239c0,0-2.878-1.071-8.206,1.409c-4.844,2.255-12.001,3.98-15.461-0.519
				c-1.552-2.018-2.977,6.843-4.14,6.451c-1.546-0.52-4.396-0.189-5.879-0.585c-2.175-0.494-3.658-0.593-5.833-0.494
				c-3.955,0.198-7.514,0-11.469-0.396c-0.89-0.099-2.67-0.494-3.46-0.297c-1.186,0.396-1.977,2.076-2.373,3.164
				c-0.791,2.472-0.396,5.438,0.692,7.811c1.186,2.472,2.571,4.746,5.141,5.833c2.472,1.088,5.043,1.879,7.415,3.362
				c7.415,4.845,11.074,11.667,13.051,19.972l0.519,1.656c0.395,2.076,1.261,3.782,1.854,5.759c0.692,1.878,1.285,3.856,2.076,5.833
				c1.186,3.065,2.076,7.119,1.483,10.382c0,0-0.173,0.346,0.989,0.198c5.772-0.737,11.865-0.989,17.599-0.593
				c5.141,0.297,11.865,0.396,16.314,3.164c0.494-2.274,0.494-5.043,0.692-7.415c0.297-2.571,0.396-5.24,0.494-7.811
				c0.099-4.252-0.198-8.602-0.396-12.854l0.099-2.076c0.099-4.054-0.297-8.107-0.099-12.062c0.198-3.46,0.791-6.822,1.384-10.184
				c0.791-4.647,1.879-9.689,0.692-14.336c-1.285-4.647-7.086-9.253-12.227-8.858"/>
		</g>
		<g>
			<path fill="#B2DCC9" d="M149.53,76.808l-0.779,0.049c-1.681,0.297-2.472,1.186-3.362,2.67c-0.89,1.384-1.384,1.977-0.396,3.461
				c1.285,2.076,3.065,3.955,5.043,5.438c4.746,3.362,10.481,1.088,14.831-1.681c1.088-0.692,2.274-1.186,3.164-1.977
				c1.088-0.989,1.483-2.274,2.472-3.263c1.285-1.186,1.879-0.791,2.373-2.472c0.297-0.89,0.717-1.804,0.717-2.793l-0.618,0.395
				c0,0-0.63,0.284-1.903,0.531c-1.257,0.244-5.166,0.531-6.13,1.186c-1.299,0.883-1.174,1.681-2.694,2.83
				c0,0-2.917,3.016-5.265,3.905c0,0-2.818,1.347-5.512-1.248c0,0-2.472-1.446-2.595-4.684
				C148.875,79.156,148.838,78.019,149.53,76.808z"/>
		</g>
		<g>
			<path fill="#FFFFFF" d="M149.53,76.808l-0.779,0.049c-1.681,0.297-2.472,1.186-3.362,2.67c-0.89,1.384-1.384,1.977-0.396,3.461
				c1.285,2.076,3.065,3.955,5.043,5.438c4.746,3.362,10.481,1.088,14.831-1.681c1.088-0.692,2.274-1.186,3.164-1.977
				c1.088-0.989,1.483-2.274,2.472-3.263c1.285-1.186,1.879-0.791,2.373-2.472c0.297-0.89,0.717-1.804,0.717-2.793l-0.618,0.395
				c0,0-0.63,0.284-1.903,0.531c-1.257,0.244-5.166,0.531-6.13,1.186c-1.299,0.883-1.174,1.681-2.694,2.83
				c0,0-2.917,3.016-5.265,3.905c0,0-2.818,1.347-5.512-1.248c0,0-2.472-1.446-2.595-4.684
				C148.875,79.156,148.838,78.019,149.53,76.808z"/>
		</g>
		<g>
			<path fill="#FFE9CF" d="M150.556,74.089c-0.277,2.219-1.928,3.263-1.631,5.562c0.297,2.225,1.483,3.559,3.337,4.82
				c4.078,2.818,7.564-1.112,10.53-3.782c0.742-0.593,1.335-1.891,2.15-2.336c1.038-0.519,2.667-0.762,3.782-0.89
				c2.025-0.233,4.901-0.465,5.599-2.076c0.419-0.967,0.148-2.595,0.284-3.25c0.243-1.171,0.872-1.635,0.902-2.274
				c0.037-0.779-1.026-0.814-1.026-0.814c-0.08-0.537,0.955-0.467,1.166-0.85c0.312-0.565-0.622-1.228-0.326-2.414
				c0.113-0.451,1.075-0.779,1.78-1.112c2.014-0.954-1.78-3.485-2.447-5.265c-0.593-1.706-0.371-3.411-0.742-5.117
				c-0.964-4.079-6.229-5.784-10.011-5.71c-5.71,0.148-11.716,5.858-14.312,10.678c-2.076,3.856-2.744,7.712-0.593,11.716
				c0.297,0.667,0.964,1.335,1.186,2.076C150.185,73.05,150.583,73.87,150.556,74.089z"/>
		</g>
		<g>
			<path fill="#062440" d="M167.018,68.694c0.544-0.198,1.186-0.569,1.186-0.569c0.074-0.395,0.001-0.867-0.074-1.205
				c-0.198-0.89-0.198-1.73-0.297-2.62c-0.198-2.027,1.186-4.35,2.966-5.339c-2.126,0.494-4.35,0.742-6.526,1.186
				c-2.867,0.643-5.833,1.582-8.651,2.472c-2.521,0.791-6.612-2.843-9.035-1.804l-0.445,0.494c0,1.977,1.298,8.009,1.718,10.332
				c0.15,0.827,0.124,1.434,0.742,1.879c0.627,0.451,0.989,0.618,1.78,0.766c2.126,0.544,4.404,0.371,6.575,0
				c0.939-0.161,1.384-0.717,1.384-0.717c0.049-0.692-0.124-1.013-0.124-1.458c-0.049-1.681-0.321-3.362,0.321-4.894
				c0.445-1.088,1.357-1.338,2.569-1.483c1.236-0.148,1.829,1.137,2.62,2.373c0,0,0.348,2.07,3.042,0.711L167.018,68.694z"/>
		</g>
		<g>
			<path fill="#2377DB" d="M145.303,60.122c-0.071-1.015,0.052-2.129,0.086-2.644c0.099-1.038,0.346-2.126,0.593-3.164
				c0.445-1.879,1.483-3.807,2.867-5.191c3.312-3.164,7.86-5.141,12.507-4.647c4.103,0.494,8.029,2.126,10.851,5.104
				c0.675,0.712,2.595,2.904,2.595,2.904c0.05,0.494-0.247,1.36-0.445,1.804c-0.544,0.989-0.84,1.953-1.532,2.843
				c-2.274,2.966-5.735,4.548-9.146,5.833c-5.043,1.879-14.287,3.362-17.995-1.78L145.303,60.122z"/>
		</g>
		<g>
			<path fill="#2377DB" d="M167.735,61.235c-0.581,0.32,1.236,0.346,1.878,0.396c4.153,0.247,10.135,0.544,13.249-2.768
				c0.791-0.84,3.132-5.296,1.829-6.303c-0.167-0.129-0.85,0.015-1.036,0.026c-1.237,0.075-2.464,0.178-3.704,0.137
				c-1.621-0.054-3.526-0.193-5.148-0.237C174.804,52.485,174.187,57.676,167.735,61.235z"/>
		</g>
		<path fill="#062440" d="M233.306,87.659c-2.374,0.125-4.022,1.74-6.393,1.569c-0.483-0.005-1.01-0.101-1.553-0.243l0.003-0.01
			L102.611,47.116c-0.658-0.224-1.38,0.068-1.697,0.687l-0.062,0.121c-0.338,0.661-0.006,1.468,0.7,1.7l122.627,40.212
			c1.676,0.62,2.163,0.892,2.552,2.801c0.281,1.634,0.115,3.412,0.691,5.198c1.153,3.423,4.217,8.644,8.382,7.349
			C244.878,102.456,243.844,86.872,233.306,87.659z"/>
		<g>
			<path fill="#FFE9CF" d="M111.229,60.407c0.593-1.977,0.976-3.026,2.472-4.14c1.162-0.865,1.368-1.919,0.816-2.348
				c-0.445-0.346-0.829-0.307-1.285-0.494c-0.544-0.222-0.924-0.12-1.088-0.47c-0.692-1.483,0.519-2.67,2.348-1.755
				c0.129,0.064-0.049-3.347-0.49-3.795c-0.474-0.481-0.911-0.004-1.463,0.112c-0.939,0.198-1.436-1.055-2.126-1.261
				c-1.162-0.346-1.065,0.333-1.854,0.272c-1.928-0.148-2.645-1.261-3.559,0.037c-0.664,0.943-2.518,2.115-2.237,3.238
				c0.148,0.593,0.358,1.619,0.358,1.619c0.198,3.296,0.813,6.164,1.055,9.204"/>
		</g>
		<g>
			<path fill="#FFE9CF" d="M126.381,54.289c-1.149-3.596-1.631-3.152-4.004-3.671c-0.493-0.108-1.471,0.486-1.557,0.185
				c-0.445-1.545-1.965-0.42-2.558-0.816c-0.989-0.692-0.445-0.89-1.94-0.618c-1.899,0.345-1.767,2.991-2.286,4.622
				s0.422,2.069,1.051,2.348c0.89,0.395,2.324,0.729,2.324,0.729c0.494,1.483,0.47,2.175,1.879,3.176
				c0.755,0.536,1.962,0.354,2.719-0.099l0.89-0.297c0,0,2.113-1.372,1.483-2.744C123.728,55.69,125.195,54.178,126.381,54.289z"/>
		</g>
	</g>
	<circle fill="#32BAA0" cx="352.564" cy="19.769" r="16.435"/>
</g>
</svg>
